<mxfile host="Electron" modified="2023-11-20T05:46:41.548Z" agent="Mozilla/5.0 (Macintosh; Intel Mac OS X 10_15_7) AppleWebKit/537.36 (KHTML, like Gecko) draw.io/22.1.2 Chrome/114.0.5735.289 Electron/25.9.4 Safari/537.36" etag="OyktRggG1hx2Eof4tpbJ" version="22.1.2" type="device" pages="6">
  <diagram name="main" id="UAeXdod1STxEoYu5g8Ut">
    <mxGraphModel dx="1026" dy="670" grid="1" gridSize="10" guides="1" tooltips="1" connect="1" arrows="0" fold="1" page="1" pageScale="1" pageWidth="827" pageHeight="1169" math="0" shadow="0">
      <root>
        <mxCell id="0" />
        <mxCell id="1" parent="0" />
        <mxCell id="TEFLDpqjtVvcrtuTDe8B-1" value="начало" style="rounded=1;whiteSpace=wrap;html=1;" parent="1" vertex="1">
          <mxGeometry x="70" width="120" height="40" as="geometry" />
        </mxCell>
        <mxCell id="TEFLDpqjtVvcrtuTDe8B-2" value="" style="endArrow=none;html=1;rounded=0;entryX=0.5;entryY=1;entryDx=0;entryDy=0;exitX=0.5;exitY=0;exitDx=0;exitDy=0;" parent="1" source="TEFLDpqjtVvcrtuTDe8B-3" target="TEFLDpqjtVvcrtuTDe8B-1" edge="1">
          <mxGeometry width="50" height="50" relative="1" as="geometry">
            <mxPoint x="130" y="80" as="sourcePoint" />
            <mxPoint x="470" y="280" as="targetPoint" />
          </mxGeometry>
        </mxCell>
        <mxCell id="TEFLDpqjtVvcrtuTDe8B-3" value="string[], n, divisions[], start_word_index, lenght, i,&amp;nbsp;word_number" style="rounded=0;whiteSpace=wrap;html=1;" parent="1" vertex="1">
          <mxGeometry x="50" y="80" width="160" height="50" as="geometry" />
        </mxCell>
        <mxCell id="TEFLDpqjtVvcrtuTDe8B-4" value="" style="endArrow=none;html=1;rounded=0;entryX=0.5;entryY=1;entryDx=0;entryDy=0;exitX=0.5;exitY=0;exitDx=0;exitDy=0;" parent="1" source="TEFLDpqjtVvcrtuTDe8B-6" target="TEFLDpqjtVvcrtuTDe8B-3" edge="1">
          <mxGeometry width="50" height="50" relative="1" as="geometry">
            <mxPoint x="130" y="160" as="sourcePoint" />
            <mxPoint x="130" y="140" as="targetPoint" />
          </mxGeometry>
        </mxCell>
        <mxCell id="TEFLDpqjtVvcrtuTDe8B-6" value="ввод string[]" style="shape=parallelogram;perimeter=parallelogramPerimeter;whiteSpace=wrap;html=1;fixedSize=1;" parent="1" vertex="1">
          <mxGeometry x="60" y="160" width="140" height="50" as="geometry" />
        </mxCell>
        <mxCell id="TEFLDpqjtVvcrtuTDe8B-7" value="" style="endArrow=none;html=1;rounded=0;entryX=0.5;entryY=1;entryDx=0;entryDy=0;exitX=0.52;exitY=-0.015;exitDx=0;exitDy=0;exitPerimeter=0;" parent="1" source="TEFLDpqjtVvcrtuTDe8B-8" target="TEFLDpqjtVvcrtuTDe8B-6" edge="1">
          <mxGeometry width="50" height="50" relative="1" as="geometry">
            <mxPoint x="130" y="230" as="sourcePoint" />
            <mxPoint x="470" y="200" as="targetPoint" />
          </mxGeometry>
        </mxCell>
        <mxCell id="TEFLDpqjtVvcrtuTDe8B-8" value="ввод n" style="shape=parallelogram;perimeter=parallelogramPerimeter;whiteSpace=wrap;html=1;fixedSize=1;" parent="1" vertex="1">
          <mxGeometry x="60" y="240" width="135" height="50" as="geometry" />
        </mxCell>
        <mxCell id="TEFLDpqjtVvcrtuTDe8B-9" value="get_divs(n, divisions)" style="shape=process;whiteSpace=wrap;html=1;backgroundOutline=1;size=0.05;" parent="1" vertex="1">
          <mxGeometry x="30" y="320" width="190" height="40" as="geometry" />
        </mxCell>
        <mxCell id="TEFLDpqjtVvcrtuTDe8B-10" value="" style="endArrow=none;html=1;rounded=0;exitX=0.524;exitY=0;exitDx=0;exitDy=0;entryX=0.513;entryY=1.005;entryDx=0;entryDy=0;entryPerimeter=0;exitPerimeter=0;" parent="1" source="TEFLDpqjtVvcrtuTDe8B-9" target="TEFLDpqjtVvcrtuTDe8B-8" edge="1">
          <mxGeometry width="50" height="50" relative="1" as="geometry">
            <mxPoint x="390" y="370" as="sourcePoint" />
            <mxPoint x="440" y="320" as="targetPoint" />
          </mxGeometry>
        </mxCell>
        <mxCell id="TEFLDpqjtVvcrtuTDe8B-11" value="" style="endArrow=none;html=1;rounded=0;entryX=0.501;entryY=-0.008;entryDx=0;entryDy=0;entryPerimeter=0;exitX=0.523;exitY=1.009;exitDx=0;exitDy=0;exitPerimeter=0;" parent="1" source="TEFLDpqjtVvcrtuTDe8B-9" target="uovZwgeO3o6J0-sqFkJ4-1" edge="1">
          <mxGeometry width="50" height="50" relative="1" as="geometry">
            <mxPoint x="130" y="370" as="sourcePoint" />
            <mxPoint x="129" y="400" as="targetPoint" />
          </mxGeometry>
        </mxCell>
        <mxCell id="uovZwgeO3o6J0-sqFkJ4-1" value="word_number = find_max(n, divisions, string, &amp;amp;start_word_index, &amp;amp;length)" style="shape=process;whiteSpace=wrap;html=1;backgroundOutline=1;size=0.05;" parent="1" vertex="1">
          <mxGeometry y="390" width="260" height="50" as="geometry" />
        </mxCell>
        <mxCell id="qLpQ8mUGkg4TMKa2irTz-1" value="" style="endArrow=none;html=1;rounded=0;exitX=0.5;exitY=1;exitDx=0;exitDy=0;entryX=0.5;entryY=0;entryDx=0;entryDy=0;" parent="1" source="uovZwgeO3o6J0-sqFkJ4-1" target="DCZJpA4gYJiZ1chG9DtH-1" edge="1">
          <mxGeometry width="50" height="50" relative="1" as="geometry">
            <mxPoint x="350" y="320" as="sourcePoint" />
            <mxPoint x="130" y="470" as="targetPoint" />
          </mxGeometry>
        </mxCell>
        <mxCell id="DCZJpA4gYJiZ1chG9DtH-1" value="output(start_word_index, length, string, word_number)" style="shape=process;whiteSpace=wrap;html=1;backgroundOutline=1;size=0.05;" parent="1" vertex="1">
          <mxGeometry x="30" y="470" width="200" height="50" as="geometry" />
        </mxCell>
        <mxCell id="DCZJpA4gYJiZ1chG9DtH-2" value="" style="endArrow=none;html=1;rounded=0;exitX=0.5;exitY=1;exitDx=0;exitDy=0;entryX=0.5;entryY=0;entryDx=0;entryDy=0;" parent="1" source="DCZJpA4gYJiZ1chG9DtH-1" target="DCZJpA4gYJiZ1chG9DtH-3" edge="1">
          <mxGeometry width="50" height="50" relative="1" as="geometry">
            <mxPoint x="420" y="420" as="sourcePoint" />
            <mxPoint x="130" y="550" as="targetPoint" />
          </mxGeometry>
        </mxCell>
        <mxCell id="DCZJpA4gYJiZ1chG9DtH-3" value="конец" style="rounded=1;whiteSpace=wrap;html=1;" parent="1" vertex="1">
          <mxGeometry x="70" y="550" width="120" height="40" as="geometry" />
        </mxCell>
        <mxCell id="BVxLVpyYJqdDomzKI_EX-1" value="get_divs(n, divs[])&lt;br&gt;начало" style="rounded=1;whiteSpace=wrap;html=1;" vertex="1" parent="1">
          <mxGeometry x="310" y="105" width="160" height="50" as="geometry" />
        </mxCell>
        <mxCell id="BVxLVpyYJqdDomzKI_EX-2" value="" style="endArrow=none;html=1;rounded=0;entryX=0.5;entryY=1;entryDx=0;entryDy=0;exitX=0.5;exitY=0;exitDx=0;exitDy=0;" edge="1" parent="1" source="BVxLVpyYJqdDomzKI_EX-4" target="BVxLVpyYJqdDomzKI_EX-1">
          <mxGeometry width="50" height="50" relative="1" as="geometry">
            <mxPoint x="390" y="185" as="sourcePoint" />
            <mxPoint x="400" y="205" as="targetPoint" />
          </mxGeometry>
        </mxCell>
        <mxCell id="BVxLVpyYJqdDomzKI_EX-3" value="i &amp;lt; n" style="rhombus;whiteSpace=wrap;html=1;" vertex="1" parent="1">
          <mxGeometry x="330" y="245" width="120" height="70" as="geometry" />
        </mxCell>
        <mxCell id="BVxLVpyYJqdDomzKI_EX-4" value="i = 0" style="rounded=0;whiteSpace=wrap;html=1;" vertex="1" parent="1">
          <mxGeometry x="350" y="175" width="80" height="30" as="geometry" />
        </mxCell>
        <mxCell id="BVxLVpyYJqdDomzKI_EX-5" value="" style="endArrow=none;html=1;rounded=0;entryX=0.5;entryY=1;entryDx=0;entryDy=0;exitX=0.5;exitY=0;exitDx=0;exitDy=0;" edge="1" parent="1" source="BVxLVpyYJqdDomzKI_EX-3" target="BVxLVpyYJqdDomzKI_EX-4">
          <mxGeometry width="50" height="50" relative="1" as="geometry">
            <mxPoint x="660" y="425" as="sourcePoint" />
            <mxPoint x="710" y="375" as="targetPoint" />
          </mxGeometry>
        </mxCell>
        <mxCell id="BVxLVpyYJqdDomzKI_EX-6" value="ввод divs[i]" style="shape=parallelogram;perimeter=parallelogramPerimeter;whiteSpace=wrap;html=1;fixedSize=1;" vertex="1" parent="1">
          <mxGeometry x="480" y="305" width="120" height="40" as="geometry" />
        </mxCell>
        <mxCell id="BVxLVpyYJqdDomzKI_EX-7" value="" style="endArrow=none;html=1;rounded=0;entryX=1;entryY=0.5;entryDx=0;entryDy=0;exitX=0.5;exitY=0;exitDx=0;exitDy=0;" edge="1" parent="1" source="BVxLVpyYJqdDomzKI_EX-6" target="BVxLVpyYJqdDomzKI_EX-3">
          <mxGeometry width="50" height="50" relative="1" as="geometry">
            <mxPoint x="680" y="445" as="sourcePoint" />
            <mxPoint x="470" y="280" as="targetPoint" />
            <Array as="points">
              <mxPoint x="540" y="280" />
            </Array>
          </mxGeometry>
        </mxCell>
        <mxCell id="BVxLVpyYJqdDomzKI_EX-8" value="" style="endArrow=none;html=1;rounded=0;entryX=0.5;entryY=1;entryDx=0;entryDy=0;exitX=0.5;exitY=0;exitDx=0;exitDy=0;" edge="1" parent="1" source="BVxLVpyYJqdDomzKI_EX-13" target="BVxLVpyYJqdDomzKI_EX-3">
          <mxGeometry width="50" height="50" relative="1" as="geometry">
            <mxPoint x="390" y="385" as="sourcePoint" />
            <mxPoint x="710" y="375" as="targetPoint" />
          </mxGeometry>
        </mxCell>
        <mxCell id="BVxLVpyYJqdDomzKI_EX-9" value="" style="endArrow=none;html=1;rounded=0;entryX=0.5;entryY=1;entryDx=0;entryDy=0;exitX=0.5;exitY=0;exitDx=0;exitDy=0;" edge="1" parent="1" source="BVxLVpyYJqdDomzKI_EX-11" target="BVxLVpyYJqdDomzKI_EX-6">
          <mxGeometry width="50" height="50" relative="1" as="geometry">
            <mxPoint x="540" y="385" as="sourcePoint" />
            <mxPoint x="730" y="375" as="targetPoint" />
          </mxGeometry>
        </mxCell>
        <mxCell id="BVxLVpyYJqdDomzKI_EX-10" value="да" style="text;html=1;strokeColor=none;fillColor=none;align=center;verticalAlign=middle;whiteSpace=wrap;rounded=0;" vertex="1" parent="1">
          <mxGeometry x="470" y="255" width="60" height="30" as="geometry" />
        </mxCell>
        <mxCell id="BVxLVpyYJqdDomzKI_EX-11" value="i++" style="rounded=0;whiteSpace=wrap;html=1;" vertex="1" parent="1">
          <mxGeometry x="490" y="365" width="100" height="40" as="geometry" />
        </mxCell>
        <mxCell id="BVxLVpyYJqdDomzKI_EX-12" value="" style="endArrow=classic;html=1;rounded=0;exitX=0.5;exitY=1;exitDx=0;exitDy=0;" edge="1" parent="1" source="BVxLVpyYJqdDomzKI_EX-11">
          <mxGeometry width="50" height="50" relative="1" as="geometry">
            <mxPoint x="660" y="425" as="sourcePoint" />
            <mxPoint x="390" y="225" as="targetPoint" />
            <Array as="points">
              <mxPoint x="540" y="425" />
              <mxPoint x="620" y="425" />
              <mxPoint x="620" y="225" />
            </Array>
          </mxGeometry>
        </mxCell>
        <mxCell id="BVxLVpyYJqdDomzKI_EX-13" value="get_divs&lt;br&gt;конец" style="rounded=1;whiteSpace=wrap;html=1;" vertex="1" parent="1">
          <mxGeometry x="310" y="375" width="160" height="50" as="geometry" />
        </mxCell>
        <mxCell id="BVxLVpyYJqdDomzKI_EX-14" value="" style="endArrow=none;dashed=1;html=1;rounded=0;exitX=1;exitY=0.5;exitDx=0;exitDy=0;" edge="1" parent="1" source="BVxLVpyYJqdDomzKI_EX-1" target="BVxLVpyYJqdDomzKI_EX-15">
          <mxGeometry width="50" height="50" relative="1" as="geometry">
            <mxPoint x="470" y="130" as="sourcePoint" />
            <mxPoint x="530" y="130" as="targetPoint" />
          </mxGeometry>
        </mxCell>
        <mxCell id="BVxLVpyYJqdDomzKI_EX-15" value="n - кол-во символов разделителей&lt;br&gt;divs[] - массив символов разделителй" style="strokeWidth=2;html=1;shape=mxgraph.flowchart.annotation_2;align=left;labelPosition=right;pointerEvents=1;" vertex="1" parent="1">
          <mxGeometry x="530" y="107.5" width="50" height="45" as="geometry" />
        </mxCell>
        <mxCell id="BVxLVpyYJqdDomzKI_EX-16" value="" style="endArrow=none;dashed=1;html=1;rounded=0;" edge="1" parent="1">
          <mxGeometry width="50" height="50" relative="1" as="geometry">
            <mxPoint x="290" y="590" as="sourcePoint" />
            <mxPoint x="290" as="targetPoint" />
          </mxGeometry>
        </mxCell>
      </root>
    </mxGraphModel>
  </diagram>
  <diagram id="VQzKR0mzcmZl2V00TLM6" name="get_divs">
    <mxGraphModel dx="1026" dy="670" grid="1" gridSize="10" guides="1" tooltips="1" connect="1" arrows="1" fold="1" page="1" pageScale="1" pageWidth="827" pageHeight="1169" math="0" shadow="0">
      <root>
        <mxCell id="0" />
        <mxCell id="1" parent="0" />
        <mxCell id="4wTQngCFfQt_dkkltaXL-1" value="get_divs(n, divs[])&lt;br&gt;начало" style="rounded=1;whiteSpace=wrap;html=1;" parent="1" vertex="1">
          <mxGeometry x="40" y="40" width="160" height="50" as="geometry" />
        </mxCell>
        <mxCell id="4wTQngCFfQt_dkkltaXL-2" value="" style="endArrow=none;html=1;rounded=0;entryX=0.5;entryY=1;entryDx=0;entryDy=0;exitX=0.5;exitY=0;exitDx=0;exitDy=0;" parent="1" source="4wTQngCFfQt_dkkltaXL-4" target="4wTQngCFfQt_dkkltaXL-1" edge="1">
          <mxGeometry width="50" height="50" relative="1" as="geometry">
            <mxPoint x="120" y="120" as="sourcePoint" />
            <mxPoint x="130" y="140" as="targetPoint" />
          </mxGeometry>
        </mxCell>
        <mxCell id="4wTQngCFfQt_dkkltaXL-3" value="i &amp;lt; n" style="rhombus;whiteSpace=wrap;html=1;" parent="1" vertex="1">
          <mxGeometry x="60" y="180" width="120" height="70" as="geometry" />
        </mxCell>
        <mxCell id="4wTQngCFfQt_dkkltaXL-4" value="i = 0" style="rounded=0;whiteSpace=wrap;html=1;" parent="1" vertex="1">
          <mxGeometry x="80" y="110" width="80" height="30" as="geometry" />
        </mxCell>
        <mxCell id="4wTQngCFfQt_dkkltaXL-5" value="" style="endArrow=none;html=1;rounded=0;entryX=0.5;entryY=1;entryDx=0;entryDy=0;exitX=0.5;exitY=0;exitDx=0;exitDy=0;" parent="1" source="4wTQngCFfQt_dkkltaXL-3" target="4wTQngCFfQt_dkkltaXL-4" edge="1">
          <mxGeometry width="50" height="50" relative="1" as="geometry">
            <mxPoint x="390" y="360" as="sourcePoint" />
            <mxPoint x="440" y="310" as="targetPoint" />
          </mxGeometry>
        </mxCell>
        <mxCell id="4wTQngCFfQt_dkkltaXL-6" value="ввод divs[i]" style="shape=parallelogram;perimeter=parallelogramPerimeter;whiteSpace=wrap;html=1;fixedSize=1;" parent="1" vertex="1">
          <mxGeometry x="210" y="240" width="120" height="40" as="geometry" />
        </mxCell>
        <mxCell id="4wTQngCFfQt_dkkltaXL-7" value="" style="endArrow=none;html=1;rounded=0;entryX=1;entryY=0.5;entryDx=0;entryDy=0;exitX=0.5;exitY=0;exitDx=0;exitDy=0;" parent="1" source="4wTQngCFfQt_dkkltaXL-6" target="4wTQngCFfQt_dkkltaXL-3" edge="1">
          <mxGeometry width="50" height="50" relative="1" as="geometry">
            <mxPoint x="410" y="380" as="sourcePoint" />
            <mxPoint x="200" y="215" as="targetPoint" />
            <Array as="points">
              <mxPoint x="270" y="215" />
            </Array>
          </mxGeometry>
        </mxCell>
        <mxCell id="4wTQngCFfQt_dkkltaXL-8" value="" style="endArrow=none;html=1;rounded=0;entryX=0.5;entryY=1;entryDx=0;entryDy=0;exitX=0.5;exitY=0;exitDx=0;exitDy=0;" parent="1" source="4wTQngCFfQt_dkkltaXL-26" target="4wTQngCFfQt_dkkltaXL-3" edge="1">
          <mxGeometry width="50" height="50" relative="1" as="geometry">
            <mxPoint x="120" y="320" as="sourcePoint" />
            <mxPoint x="440" y="310" as="targetPoint" />
          </mxGeometry>
        </mxCell>
        <mxCell id="4wTQngCFfQt_dkkltaXL-9" value="" style="endArrow=none;html=1;rounded=0;entryX=0.5;entryY=1;entryDx=0;entryDy=0;exitX=0.5;exitY=0;exitDx=0;exitDy=0;" parent="1" source="4wTQngCFfQt_dkkltaXL-11" target="4wTQngCFfQt_dkkltaXL-6" edge="1">
          <mxGeometry width="50" height="50" relative="1" as="geometry">
            <mxPoint x="270" y="320" as="sourcePoint" />
            <mxPoint x="460" y="310" as="targetPoint" />
          </mxGeometry>
        </mxCell>
        <mxCell id="4wTQngCFfQt_dkkltaXL-10" value="да" style="text;html=1;strokeColor=none;fillColor=none;align=center;verticalAlign=middle;whiteSpace=wrap;rounded=0;" parent="1" vertex="1">
          <mxGeometry x="200" y="190" width="60" height="30" as="geometry" />
        </mxCell>
        <mxCell id="4wTQngCFfQt_dkkltaXL-11" value="i++" style="rounded=0;whiteSpace=wrap;html=1;" parent="1" vertex="1">
          <mxGeometry x="220" y="300" width="100" height="40" as="geometry" />
        </mxCell>
        <mxCell id="4wTQngCFfQt_dkkltaXL-13" value="" style="endArrow=classic;html=1;rounded=0;exitX=0.5;exitY=1;exitDx=0;exitDy=0;" parent="1" source="4wTQngCFfQt_dkkltaXL-11" edge="1">
          <mxGeometry width="50" height="50" relative="1" as="geometry">
            <mxPoint x="390" y="360" as="sourcePoint" />
            <mxPoint x="120" y="160" as="targetPoint" />
            <Array as="points">
              <mxPoint x="270" y="360" />
              <mxPoint x="350" y="360" />
              <mxPoint x="350" y="160" />
            </Array>
          </mxGeometry>
        </mxCell>
        <mxCell id="4wTQngCFfQt_dkkltaXL-26" value="get_divs&lt;br&gt;конец" style="rounded=1;whiteSpace=wrap;html=1;" parent="1" vertex="1">
          <mxGeometry x="40" y="310" width="160" height="50" as="geometry" />
        </mxCell>
        <mxCell id="TUbUrlav_rMtPt5mqSf0-1" value="" style="endArrow=none;dashed=1;html=1;rounded=0;exitX=1;exitY=0.5;exitDx=0;exitDy=0;" parent="1" source="4wTQngCFfQt_dkkltaXL-1" target="4wTQngCFfQt_dkkltaXL-18" edge="1">
          <mxGeometry width="50" height="50" relative="1" as="geometry">
            <mxPoint x="200" y="65" as="sourcePoint" />
            <mxPoint x="260" y="65" as="targetPoint" />
          </mxGeometry>
        </mxCell>
        <mxCell id="4wTQngCFfQt_dkkltaXL-18" value="n - кол-во символов разделителей&lt;br&gt;divs[] - массив символов разделителй" style="strokeWidth=2;html=1;shape=mxgraph.flowchart.annotation_2;align=left;labelPosition=right;pointerEvents=1;" parent="1" vertex="1">
          <mxGeometry x="260" y="42.5" width="50" height="45" as="geometry" />
        </mxCell>
      </root>
    </mxGraphModel>
  </diagram>
  <diagram id="vJno_l5QyCfMe2NCu6FD" name="find_max">
    <mxGraphModel dx="977" dy="638" grid="1" gridSize="10" guides="1" tooltips="1" connect="1" arrows="1" fold="1" page="1" pageScale="1" pageWidth="827" pageHeight="1169" math="0" shadow="0">
      <root>
        <mxCell id="0" />
        <mxCell id="1" parent="0" />
        <mxCell id="pQLa0wd_40LV7v7XWsnc-1" value="&lt;div&gt;find_max(n, divs[], char str[], *start_max_word_index,&amp;nbsp;&lt;span style=&quot;background-color: initial;&quot;&gt;*max_len)&lt;/span&gt;&lt;/div&gt;&lt;div&gt;начало&lt;/div&gt;" style="rounded=1;whiteSpace=wrap;html=1;" parent="1" vertex="1">
          <mxGeometry x="60" y="107.5" width="240" height="70" as="geometry" />
        </mxCell>
        <mxCell id="34mQ3kH_2laHY0dvk2PZ-1" value="" style="endArrow=none;html=1;rounded=0;exitX=0.5;exitY=1;exitDx=0;exitDy=0;" parent="1" source="pQLa0wd_40LV7v7XWsnc-1" target="34mQ3kH_2laHY0dvk2PZ-2" edge="1">
          <mxGeometry width="50" height="50" relative="1" as="geometry">
            <mxPoint x="220" y="147.5" as="sourcePoint" />
            <mxPoint x="180" y="227.5" as="targetPoint" />
          </mxGeometry>
        </mxCell>
        <mxCell id="34mQ3kH_2laHY0dvk2PZ-2" value="&lt;div style=&quot;&quot;&gt;cur_len = 0&lt;/div&gt;&lt;div&gt;start_word_index = 0&lt;/div&gt;&lt;div&gt;int word_number = 1 final_word_nubmer&lt;br&gt;&lt;/div&gt;" style="rounded=0;whiteSpace=wrap;html=1;align=left;" parent="1" vertex="1">
          <mxGeometry x="95" y="197.5" width="170" height="80" as="geometry" />
        </mxCell>
        <mxCell id="34mQ3kH_2laHY0dvk2PZ-4" value="" style="endArrow=none;html=1;rounded=0;exitX=0.5;exitY=1;exitDx=0;exitDy=0;" parent="1" source="34mQ3kH_2laHY0dvk2PZ-2" target="60EfG8WZNXDSOTHyEhvJ-7" edge="1">
          <mxGeometry width="50" height="50" relative="1" as="geometry">
            <mxPoint x="220" y="257.5" as="sourcePoint" />
            <mxPoint x="180" y="297.5" as="targetPoint" />
          </mxGeometry>
        </mxCell>
        <mxCell id="34mQ3kH_2laHY0dvk2PZ-5" value="str[i] != &#39;\n&#39;" style="rhombus;whiteSpace=wrap;html=1;" parent="1" vertex="1">
          <mxGeometry x="130" y="347.5" width="100" height="60" as="geometry" />
        </mxCell>
        <mxCell id="34mQ3kH_2laHY0dvk2PZ-6" value="" style="endArrow=none;html=1;rounded=0;exitX=-0.125;exitY=1;exitDx=0;exitDy=0;exitPerimeter=0;entryX=0.5;entryY=0;entryDx=0;entryDy=0;" parent="1" source="60EfG8WZNXDSOTHyEhvJ-1" target="yyRT8HsQmf1g3tqlaRFj-3" edge="1">
          <mxGeometry width="50" height="50" relative="1" as="geometry">
            <mxPoint x="264" y="377.5" as="sourcePoint" />
            <mxPoint x="334" y="397.5" as="targetPoint" />
            <Array as="points">
              <mxPoint x="340" y="377.5" />
            </Array>
          </mxGeometry>
        </mxCell>
        <mxCell id="34mQ3kH_2laHY0dvk2PZ-7" value="" style="endArrow=none;html=1;rounded=0;exitX=0.5;exitY=1;exitDx=0;exitDy=0;entryX=0.5;entryY=0;entryDx=0;entryDy=0;" parent="1" source="jU3SlgI4mT0bBd802Ouv-5" target="JSGnQJvEd_sACoIFiH0O-15" edge="1">
          <mxGeometry width="50" height="50" relative="1" as="geometry">
            <mxPoint x="280" y="427.5" as="sourcePoint" />
            <mxPoint x="180" y="907.5" as="targetPoint" />
          </mxGeometry>
        </mxCell>
        <mxCell id="60EfG8WZNXDSOTHyEhvJ-1" value="да" style="text;html=1;align=center;verticalAlign=middle;resizable=0;points=[];autosize=1;strokeColor=none;fillColor=none;" parent="1" vertex="1">
          <mxGeometry x="220" y="347.5" width="40" height="30" as="geometry" />
        </mxCell>
        <mxCell id="60EfG8WZNXDSOTHyEhvJ-2" value="bool == 1" style="rhombus;whiteSpace=wrap;html=1;" parent="1" vertex="1">
          <mxGeometry x="260" y="457.5" width="160" height="90" as="geometry" />
        </mxCell>
        <mxCell id="60EfG8WZNXDSOTHyEhvJ-7" value="i = 0" style="rounded=0;whiteSpace=wrap;html=1;" parent="1" vertex="1">
          <mxGeometry x="120" y="287.5" width="120" height="40" as="geometry" />
        </mxCell>
        <mxCell id="60EfG8WZNXDSOTHyEhvJ-8" value="" style="endArrow=none;html=1;rounded=0;exitX=0.5;exitY=0;exitDx=0;exitDy=0;entryX=0.5;entryY=1;entryDx=0;entryDy=0;" parent="1" source="34mQ3kH_2laHY0dvk2PZ-5" target="60EfG8WZNXDSOTHyEhvJ-7" edge="1">
          <mxGeometry width="50" height="50" relative="1" as="geometry">
            <mxPoint x="310" y="377.5" as="sourcePoint" />
            <mxPoint x="360" y="327.5" as="targetPoint" />
          </mxGeometry>
        </mxCell>
        <mxCell id="60EfG8WZNXDSOTHyEhvJ-9" value="" style="endArrow=none;html=1;rounded=0;exitX=1;exitY=0.5;exitDx=0;exitDy=0;" parent="1" source="60EfG8WZNXDSOTHyEhvJ-2" target="60EfG8WZNXDSOTHyEhvJ-11" edge="1">
          <mxGeometry width="50" height="50" relative="1" as="geometry">
            <mxPoint x="345" y="507.5" as="sourcePoint" />
            <mxPoint x="455" y="537.5" as="targetPoint" />
            <Array as="points">
              <mxPoint x="501" y="502.5" />
            </Array>
          </mxGeometry>
        </mxCell>
        <mxCell id="60EfG8WZNXDSOTHyEhvJ-10" value="да" style="text;html=1;align=center;verticalAlign=middle;resizable=0;points=[];autosize=1;strokeColor=none;fillColor=none;" parent="1" vertex="1">
          <mxGeometry x="415" y="467.5" width="40" height="30" as="geometry" />
        </mxCell>
        <mxCell id="60EfG8WZNXDSOTHyEhvJ-11" value="cur_len++" style="rounded=0;whiteSpace=wrap;html=1;" parent="1" vertex="1">
          <mxGeometry x="461" y="577.5" width="80" height="40" as="geometry" />
        </mxCell>
        <mxCell id="60EfG8WZNXDSOTHyEhvJ-13" value="" style="endArrow=none;html=1;rounded=0;exitX=0.5;exitY=1;exitDx=0;exitDy=0;entryX=0.5;entryY=0;entryDx=0;entryDy=0;" parent="1" source="60EfG8WZNXDSOTHyEhvJ-2" target="60EfG8WZNXDSOTHyEhvJ-14" edge="1">
          <mxGeometry width="50" height="50" relative="1" as="geometry">
            <mxPoint x="345" y="517.5" as="sourcePoint" />
            <mxPoint x="335" y="587.5" as="targetPoint" />
          </mxGeometry>
        </mxCell>
        <mxCell id="60EfG8WZNXDSOTHyEhvJ-14" value="&lt;div&gt;&amp;nbsp; cur_len = 0&lt;/div&gt;&lt;div&gt;&amp;nbsp; start_word_index = i + 1&lt;/div&gt;&lt;div&gt;&amp;nbsp;&amp;nbsp;word_number++&lt;/div&gt;" style="rounded=0;whiteSpace=wrap;html=1;align=left;" parent="1" vertex="1">
          <mxGeometry x="270" y="657.5" width="140" height="82.5" as="geometry" />
        </mxCell>
        <mxCell id="60EfG8WZNXDSOTHyEhvJ-15" value="" style="endArrow=none;html=1;rounded=0;exitX=0.5;exitY=1;exitDx=0;exitDy=0;entryX=0.5;entryY=0;entryDx=0;entryDy=0;" parent="1" source="60EfG8WZNXDSOTHyEhvJ-14" target="JSGnQJvEd_sACoIFiH0O-12" edge="1">
          <mxGeometry width="50" height="50" relative="1" as="geometry">
            <mxPoint x="455" y="627.5" as="sourcePoint" />
            <mxPoint x="340" y="857.5" as="targetPoint" />
          </mxGeometry>
        </mxCell>
        <mxCell id="60EfG8WZNXDSOTHyEhvJ-16" value="" style="endArrow=none;html=1;rounded=0;exitX=0.5;exitY=1;exitDx=0;exitDy=0;entryX=0.5;entryY=0;entryDx=0;entryDy=0;" parent="1" source="60EfG8WZNXDSOTHyEhvJ-11" target="JSGnQJvEd_sACoIFiH0O-2" edge="1">
          <mxGeometry width="50" height="50" relative="1" as="geometry">
            <mxPoint x="455" y="627.5" as="sourcePoint" />
            <mxPoint x="335" y="657.5" as="targetPoint" />
            <Array as="points">
              <mxPoint x="501" y="647.5" />
            </Array>
          </mxGeometry>
        </mxCell>
        <mxCell id="yyRT8HsQmf1g3tqlaRFj-3" value="bool = check_s(str[i], n, divs)" style="shape=process;whiteSpace=wrap;html=1;backgroundOutline=1;size=0.05263157894736842;" parent="1" vertex="1">
          <mxGeometry x="255" y="397.5" width="170" height="40" as="geometry" />
        </mxCell>
        <mxCell id="yyRT8HsQmf1g3tqlaRFj-4" value="" style="endArrow=none;html=1;rounded=0;entryX=0.5;entryY=1;entryDx=0;entryDy=0;exitX=0.5;exitY=0;exitDx=0;exitDy=0;" parent="1" source="60EfG8WZNXDSOTHyEhvJ-2" target="yyRT8HsQmf1g3tqlaRFj-3" edge="1">
          <mxGeometry width="50" height="50" relative="1" as="geometry">
            <mxPoint x="370" y="477.5" as="sourcePoint" />
            <mxPoint x="420" y="427.5" as="targetPoint" />
          </mxGeometry>
        </mxCell>
        <mxCell id="JSGnQJvEd_sACoIFiH0O-2" value="max_len &amp;lt;= cur_len" style="rhombus;whiteSpace=wrap;html=1;" parent="1" vertex="1">
          <mxGeometry x="431" y="647.5" width="140" height="80" as="geometry" />
        </mxCell>
        <mxCell id="JSGnQJvEd_sACoIFiH0O-3" value="" style="endArrow=none;html=1;rounded=0;exitX=1;exitY=0.5;exitDx=0;exitDy=0;" parent="1" source="JSGnQJvEd_sACoIFiH0O-2" target="JSGnQJvEd_sACoIFiH0O-6" edge="1">
          <mxGeometry width="50" height="50" relative="1" as="geometry">
            <mxPoint x="542" y="587.5" as="sourcePoint" />
            <mxPoint x="632" y="727.5" as="targetPoint" />
            <Array as="points">
              <mxPoint x="632" y="687.5" />
            </Array>
          </mxGeometry>
        </mxCell>
        <mxCell id="JSGnQJvEd_sACoIFiH0O-5" value="да" style="text;html=1;strokeColor=none;fillColor=none;align=center;verticalAlign=middle;whiteSpace=wrap;rounded=0;" parent="1" vertex="1">
          <mxGeometry x="581" y="657.5" width="50" height="30" as="geometry" />
        </mxCell>
        <mxCell id="JSGnQJvEd_sACoIFiH0O-6" value="max_len = cur_len" style="rounded=0;whiteSpace=wrap;html=1;" parent="1" vertex="1">
          <mxGeometry x="572" y="700" width="120" height="40" as="geometry" />
        </mxCell>
        <mxCell id="JSGnQJvEd_sACoIFiH0O-7" value="start_max_word_index = start_word_index" style="rounded=0;whiteSpace=wrap;html=1;" parent="1" vertex="1">
          <mxGeometry x="567" y="750" width="130" height="60" as="geometry" />
        </mxCell>
        <mxCell id="JSGnQJvEd_sACoIFiH0O-8" value="" style="endArrow=none;html=1;rounded=0;exitX=0.5;exitY=1;exitDx=0;exitDy=0;entryX=0.5;entryY=0;entryDx=0;entryDy=0;" parent="1" source="JSGnQJvEd_sACoIFiH0O-6" target="JSGnQJvEd_sACoIFiH0O-7" edge="1">
          <mxGeometry width="50" height="50" relative="1" as="geometry">
            <mxPoint x="572" y="617.5" as="sourcePoint" />
            <mxPoint x="622" y="567.5" as="targetPoint" />
          </mxGeometry>
        </mxCell>
        <mxCell id="JSGnQJvEd_sACoIFiH0O-9" value="" style="endArrow=none;html=1;rounded=0;exitX=0.5;exitY=1;exitDx=0;exitDy=0;" parent="1" source="JSGnQJvEd_sACoIFiH0O-2" edge="1">
          <mxGeometry width="50" height="50" relative="1" as="geometry">
            <mxPoint x="582" y="617.5" as="sourcePoint" />
            <mxPoint x="340" y="870" as="targetPoint" />
            <Array as="points">
              <mxPoint x="500" y="870" />
            </Array>
          </mxGeometry>
        </mxCell>
        <mxCell id="JSGnQJvEd_sACoIFiH0O-10" value="" style="endArrow=none;html=1;rounded=0;" parent="1" target="jU3SlgI4mT0bBd802Ouv-3" edge="1">
          <mxGeometry width="50" height="50" relative="1" as="geometry">
            <mxPoint x="500" y="870" as="sourcePoint" />
            <mxPoint x="630" y="860" as="targetPoint" />
            <Array as="points">
              <mxPoint x="630" y="870" />
            </Array>
          </mxGeometry>
        </mxCell>
        <mxCell id="JSGnQJvEd_sACoIFiH0O-12" value="i++" style="rounded=0;whiteSpace=wrap;html=1;" parent="1" vertex="1">
          <mxGeometry x="290" y="890" width="100" height="30" as="geometry" />
        </mxCell>
        <mxCell id="JSGnQJvEd_sACoIFiH0O-13" value="" style="endArrow=classic;html=1;rounded=0;exitX=0.5;exitY=1;exitDx=0;exitDy=0;" parent="1" source="JSGnQJvEd_sACoIFiH0O-12" edge="1">
          <mxGeometry width="50" height="50" relative="1" as="geometry">
            <mxPoint x="470" y="947.5" as="sourcePoint" />
            <mxPoint x="180" y="337.5" as="targetPoint" />
            <Array as="points">
              <mxPoint x="340" y="940" />
              <mxPoint x="740" y="940" />
              <mxPoint x="740" y="337.5" />
            </Array>
          </mxGeometry>
        </mxCell>
        <mxCell id="JSGnQJvEd_sACoIFiH0O-15" value="&lt;div&gt;find_max&lt;/div&gt;&lt;div&gt;конец&lt;/div&gt;" style="rounded=1;whiteSpace=wrap;html=1;" parent="1" vertex="1">
          <mxGeometry x="105" y="890" width="150" height="50" as="geometry" />
        </mxCell>
        <mxCell id="zJBBK5uNpJoB3yLxz6pN-4" value="n - длинна&lt;br&gt;divs[] - массив символов разделителей&lt;br&gt;str[] - строка полученная от пользователя&lt;br&gt;start_max_word_index - указатель на переменную содержащую индекс первого&lt;br&gt;символа максимально длинного слова в строке&lt;br&gt;max len - указатель на переменную содержащую длинну максимально длинного слова в строке" style="strokeWidth=2;html=1;shape=mxgraph.flowchart.annotation_2;align=left;labelPosition=right;pointerEvents=1;" parent="1" vertex="1">
          <mxGeometry x="356" y="100" width="50" height="85" as="geometry" />
        </mxCell>
        <mxCell id="vvYV96QVO57v6nG0_EZI-1" value="" style="endArrow=none;dashed=1;html=1;rounded=0;exitX=1;exitY=0.5;exitDx=0;exitDy=0;entryX=0;entryY=0.5;entryDx=0;entryDy=0;entryPerimeter=0;" parent="1" source="pQLa0wd_40LV7v7XWsnc-1" target="zJBBK5uNpJoB3yLxz6pN-4" edge="1">
          <mxGeometry width="50" height="50" relative="1" as="geometry">
            <mxPoint x="896" y="527.5" as="sourcePoint" />
            <mxPoint x="946" y="477.5" as="targetPoint" />
          </mxGeometry>
        </mxCell>
        <mxCell id="jU3SlgI4mT0bBd802Ouv-3" value="final_word_nubmer = word_number" style="rounded=0;whiteSpace=wrap;html=1;" parent="1" vertex="1">
          <mxGeometry x="567" y="820" width="130" height="40" as="geometry" />
        </mxCell>
        <mxCell id="jU3SlgI4mT0bBd802Ouv-4" value="" style="endArrow=none;html=1;rounded=0;entryX=0.5;entryY=1;entryDx=0;entryDy=0;exitX=0.5;exitY=0;exitDx=0;exitDy=0;" parent="1" source="jU3SlgI4mT0bBd802Ouv-3" target="JSGnQJvEd_sACoIFiH0O-7" edge="1">
          <mxGeometry width="50" height="50" relative="1" as="geometry">
            <mxPoint x="560" y="880" as="sourcePoint" />
            <mxPoint x="610" y="830" as="targetPoint" />
          </mxGeometry>
        </mxCell>
        <mxCell id="jU3SlgI4mT0bBd802Ouv-6" value="" style="endArrow=none;html=1;rounded=0;exitX=0.5;exitY=1;exitDx=0;exitDy=0;entryX=0.5;entryY=0;entryDx=0;entryDy=0;" parent="1" source="34mQ3kH_2laHY0dvk2PZ-5" target="jU3SlgI4mT0bBd802Ouv-5" edge="1">
          <mxGeometry width="50" height="50" relative="1" as="geometry">
            <mxPoint x="180" y="408" as="sourcePoint" />
            <mxPoint x="180" y="858" as="targetPoint" />
          </mxGeometry>
        </mxCell>
        <mxCell id="jU3SlgI4mT0bBd802Ouv-5" value="return final_word_nubmer" style="rounded=0;whiteSpace=wrap;html=1;" parent="1" vertex="1">
          <mxGeometry x="100" y="780" width="160" height="60" as="geometry" />
        </mxCell>
      </root>
    </mxGraphModel>
  </diagram>
  <diagram id="VLM5_tb60EJPNsQun4Eo" name="check_s">
    <mxGraphModel dx="1026" dy="670" grid="1" gridSize="10" guides="1" tooltips="1" connect="1" arrows="1" fold="1" page="1" pageScale="1" pageWidth="827" pageHeight="1169" math="0" shadow="0">
      <root>
        <mxCell id="0" />
        <mxCell id="1" parent="0" />
        <mxCell id="oxHT-I_WKf6XJEW5K6bw-1" value="check_s(symb, n, divs[])" style="rounded=1;whiteSpace=wrap;html=1;" parent="1" vertex="1">
          <mxGeometry x="80" y="80" width="120" height="60" as="geometry" />
        </mxCell>
        <mxCell id="L3MBNdXID0tQndelKpmm-2" value="" style="endArrow=none;html=1;rounded=0;exitX=0.5;exitY=1;exitDx=0;exitDy=0;" parent="1" source="Fnrqn888Zv0Hl6WRLy2H-1" target="L3MBNdXID0tQndelKpmm-4" edge="1">
          <mxGeometry width="50" height="50" relative="1" as="geometry">
            <mxPoint x="140" y="150" as="sourcePoint" />
            <mxPoint x="140" y="180" as="targetPoint" />
          </mxGeometry>
        </mxCell>
        <mxCell id="L3MBNdXID0tQndelKpmm-3" value="j &amp;lt; n" style="rhombus;whiteSpace=wrap;html=1;" parent="1" vertex="1">
          <mxGeometry x="90" y="280" width="100" height="50" as="geometry" />
        </mxCell>
        <mxCell id="L3MBNdXID0tQndelKpmm-4" value="j = 0" style="rounded=0;whiteSpace=wrap;html=1;" parent="1" vertex="1">
          <mxGeometry x="80" y="210" width="120" height="40" as="geometry" />
        </mxCell>
        <mxCell id="L3MBNdXID0tQndelKpmm-5" value="" style="endArrow=none;html=1;rounded=0;exitX=0.5;exitY=1;exitDx=0;exitDy=0;entryX=0.5;entryY=0;entryDx=0;entryDy=0;" parent="1" source="L3MBNdXID0tQndelKpmm-4" target="L3MBNdXID0tQndelKpmm-3" edge="1">
          <mxGeometry width="50" height="50" relative="1" as="geometry">
            <mxPoint x="280" y="190" as="sourcePoint" />
            <mxPoint x="330" y="140" as="targetPoint" />
          </mxGeometry>
        </mxCell>
        <mxCell id="L3MBNdXID0tQndelKpmm-6" value="" style="endArrow=none;html=1;rounded=0;exitX=1;exitY=0.5;exitDx=0;exitDy=0;" parent="1" source="L3MBNdXID0tQndelKpmm-3" target="L3MBNdXID0tQndelKpmm-8" edge="1">
          <mxGeometry width="50" height="50" relative="1" as="geometry">
            <mxPoint x="280" y="190" as="sourcePoint" />
            <mxPoint x="240" y="390" as="targetPoint" />
            <Array as="points">
              <mxPoint x="240" y="305" />
            </Array>
          </mxGeometry>
        </mxCell>
        <mxCell id="L3MBNdXID0tQndelKpmm-7" value="" style="endArrow=none;html=1;rounded=0;exitX=0.5;exitY=1;exitDx=0;exitDy=0;entryX=0.5;entryY=0;entryDx=0;entryDy=0;" parent="1" source="L3MBNdXID0tQndelKpmm-3" target="s1Q4LZfgTiO9FCrtw4T7-1" edge="1">
          <mxGeometry width="50" height="50" relative="1" as="geometry">
            <mxPoint x="280" y="190" as="sourcePoint" />
            <mxPoint x="140" y="450" as="targetPoint" />
          </mxGeometry>
        </mxCell>
        <mxCell id="L3MBNdXID0tQndelKpmm-8" value="symb == divs[j]" style="rhombus;whiteSpace=wrap;html=1;" parent="1" vertex="1">
          <mxGeometry x="180" y="320" width="120" height="70" as="geometry" />
        </mxCell>
        <mxCell id="L3MBNdXID0tQndelKpmm-9" value="" style="endArrow=none;html=1;rounded=0;exitX=0.5;exitY=1;exitDx=0;exitDy=0;entryX=0.5;entryY=0;entryDx=0;entryDy=0;" parent="1" source="L3MBNdXID0tQndelKpmm-8" target="L3MBNdXID0tQndelKpmm-13" edge="1">
          <mxGeometry width="50" height="50" relative="1" as="geometry">
            <mxPoint x="290" y="350" as="sourcePoint" />
            <mxPoint x="240" y="440" as="targetPoint" />
          </mxGeometry>
        </mxCell>
        <mxCell id="L3MBNdXID0tQndelKpmm-10" value="" style="endArrow=none;html=1;rounded=0;exitX=1;exitY=0.5;exitDx=0;exitDy=0;" parent="1" source="L3MBNdXID0tQndelKpmm-8" target="L3MBNdXID0tQndelKpmm-11" edge="1">
          <mxGeometry width="50" height="50" relative="1" as="geometry">
            <mxPoint x="290" y="370" as="sourcePoint" />
            <mxPoint x="340" y="410" as="targetPoint" />
            <Array as="points">
              <mxPoint x="335" y="355" />
            </Array>
          </mxGeometry>
        </mxCell>
        <mxCell id="L3MBNdXID0tQndelKpmm-11" value="flag = 0" style="rounded=0;whiteSpace=wrap;html=1;" parent="1" vertex="1">
          <mxGeometry x="300" y="380" width="70" height="30" as="geometry" />
        </mxCell>
        <mxCell id="L3MBNdXID0tQndelKpmm-12" value="" style="endArrow=none;html=1;rounded=0;exitX=0.5;exitY=1;exitDx=0;exitDy=0;" parent="1" source="L3MBNdXID0tQndelKpmm-11" edge="1">
          <mxGeometry width="50" height="50" relative="1" as="geometry">
            <mxPoint x="250" y="400" as="sourcePoint" />
            <mxPoint x="240" y="430" as="targetPoint" />
            <Array as="points">
              <mxPoint x="335" y="430" />
            </Array>
          </mxGeometry>
        </mxCell>
        <mxCell id="L3MBNdXID0tQndelKpmm-13" value="j++" style="rounded=0;whiteSpace=wrap;html=1;" parent="1" vertex="1">
          <mxGeometry x="195" y="450" width="90" height="30" as="geometry" />
        </mxCell>
        <mxCell id="L3MBNdXID0tQndelKpmm-15" value="" style="endArrow=classic;html=1;rounded=0;exitX=0.5;exitY=1;exitDx=0;exitDy=0;" parent="1" source="L3MBNdXID0tQndelKpmm-13" edge="1">
          <mxGeometry width="50" height="50" relative="1" as="geometry">
            <mxPoint x="270" y="420" as="sourcePoint" />
            <mxPoint x="140" y="270" as="targetPoint" />
            <Array as="points">
              <mxPoint x="240" y="500" />
              <mxPoint x="400" y="500" />
              <mxPoint x="400" y="270" />
            </Array>
          </mxGeometry>
        </mxCell>
        <mxCell id="s1Q4LZfgTiO9FCrtw4T7-1" value="return flag" style="rounded=0;whiteSpace=wrap;html=1;" parent="1" vertex="1">
          <mxGeometry x="95" y="400" width="90" height="30" as="geometry" />
        </mxCell>
        <mxCell id="s1Q4LZfgTiO9FCrtw4T7-2" value="check_s&lt;br&gt;конец" style="rounded=1;whiteSpace=wrap;html=1;" parent="1" vertex="1">
          <mxGeometry x="95" y="460" width="90" height="40" as="geometry" />
        </mxCell>
        <mxCell id="s1Q4LZfgTiO9FCrtw4T7-3" value="" style="endArrow=none;html=1;rounded=0;exitX=0.5;exitY=1;exitDx=0;exitDy=0;entryX=0.5;entryY=0;entryDx=0;entryDy=0;" parent="1" source="s1Q4LZfgTiO9FCrtw4T7-1" target="s1Q4LZfgTiO9FCrtw4T7-2" edge="1">
          <mxGeometry width="50" height="50" relative="1" as="geometry">
            <mxPoint x="200" y="440" as="sourcePoint" />
            <mxPoint x="250" y="390" as="targetPoint" />
          </mxGeometry>
        </mxCell>
        <mxCell id="9tIopjSVfdPrHpToHwDh-1" value="да" style="text;html=1;align=center;verticalAlign=middle;resizable=0;points=[];autosize=1;strokeColor=none;fillColor=none;" parent="1" vertex="1">
          <mxGeometry x="290" y="325" width="40" height="30" as="geometry" />
        </mxCell>
        <mxCell id="fk2dONtDeIRuYqYyIpPD-3" value="symb - символ который нужно проверить&lt;br&gt;n - кол-во символов разделителей&amp;nbsp;&lt;br&gt;divs[] - массив символов разделителей" style="strokeWidth=2;html=1;shape=mxgraph.flowchart.annotation_2;align=left;labelPosition=right;pointerEvents=1;" parent="1" vertex="1">
          <mxGeometry x="240" y="80" width="50" height="60" as="geometry" />
        </mxCell>
        <mxCell id="XTA2kOX5PM19zCToJxda-1" value="" style="endArrow=none;dashed=1;html=1;rounded=0;exitX=1;exitY=0.5;exitDx=0;exitDy=0;entryX=0;entryY=0.5;entryDx=0;entryDy=0;entryPerimeter=0;" parent="1" source="oxHT-I_WKf6XJEW5K6bw-1" target="fk2dONtDeIRuYqYyIpPD-3" edge="1">
          <mxGeometry width="50" height="50" relative="1" as="geometry">
            <mxPoint x="770" y="340" as="sourcePoint" />
            <mxPoint x="820" y="290" as="targetPoint" />
          </mxGeometry>
        </mxCell>
        <mxCell id="rjtTlHAXtcPvgYjNYt7F-1" value="output(stw, len, str[], word_numb)&lt;br&gt;начало" style="rounded=1;whiteSpace=wrap;html=1;" vertex="1" parent="1">
          <mxGeometry x="570" y="80" width="160" height="60" as="geometry" />
        </mxCell>
        <mxCell id="rjtTlHAXtcPvgYjNYt7F-2" value="" style="endArrow=none;html=1;rounded=0;entryX=0.5;entryY=1;entryDx=0;entryDy=0;exitX=0.5;exitY=0;exitDx=0;exitDy=0;" edge="1" parent="1" source="rjtTlHAXtcPvgYjNYt7F-3" target="rjtTlHAXtcPvgYjNYt7F-1">
          <mxGeometry width="50" height="50" relative="1" as="geometry">
            <mxPoint x="650" y="190" as="sourcePoint" />
            <mxPoint x="870" y="590" as="targetPoint" />
          </mxGeometry>
        </mxCell>
        <mxCell id="rjtTlHAXtcPvgYjNYt7F-3" value="i = stw" style="rounded=0;whiteSpace=wrap;html=1;" vertex="1" parent="1">
          <mxGeometry x="605" y="160" width="90" height="40" as="geometry" />
        </mxCell>
        <mxCell id="rjtTlHAXtcPvgYjNYt7F-4" value="" style="endArrow=none;html=1;rounded=0;entryX=0.5;entryY=1;entryDx=0;entryDy=0;exitX=0.5;exitY=0;exitDx=0;exitDy=0;" edge="1" parent="1" source="rjtTlHAXtcPvgYjNYt7F-5" target="rjtTlHAXtcPvgYjNYt7F-3">
          <mxGeometry width="50" height="50" relative="1" as="geometry">
            <mxPoint x="650" y="270" as="sourcePoint" />
            <mxPoint x="870" y="590" as="targetPoint" />
          </mxGeometry>
        </mxCell>
        <mxCell id="rjtTlHAXtcPvgYjNYt7F-5" value="i &amp;lt; stw + len" style="rhombus;whiteSpace=wrap;html=1;" vertex="1" parent="1">
          <mxGeometry x="590" y="240" width="120" height="80" as="geometry" />
        </mxCell>
        <mxCell id="rjtTlHAXtcPvgYjNYt7F-6" value="" style="endArrow=none;html=1;rounded=0;entryX=0.5;entryY=1;entryDx=0;entryDy=0;exitX=0.5;exitY=0;exitDx=0;exitDy=0;" edge="1" parent="1" source="rjtTlHAXtcPvgYjNYt7F-13" target="rjtTlHAXtcPvgYjNYt7F-5">
          <mxGeometry width="50" height="50" relative="1" as="geometry">
            <mxPoint x="670" y="340" as="sourcePoint" />
            <mxPoint x="870" y="590" as="targetPoint" />
          </mxGeometry>
        </mxCell>
        <mxCell id="rjtTlHAXtcPvgYjNYt7F-7" value="" style="endArrow=none;html=1;rounded=0;entryX=1;entryY=0.5;entryDx=0;entryDy=0;exitX=0.5;exitY=0;exitDx=0;exitDy=0;" edge="1" parent="1" source="rjtTlHAXtcPvgYjNYt7F-9" target="rjtTlHAXtcPvgYjNYt7F-5">
          <mxGeometry width="50" height="50" relative="1" as="geometry">
            <mxPoint x="800" y="320" as="sourcePoint" />
            <mxPoint x="730" y="280" as="targetPoint" />
            <Array as="points">
              <mxPoint x="800" y="280" />
            </Array>
          </mxGeometry>
        </mxCell>
        <mxCell id="rjtTlHAXtcPvgYjNYt7F-8" value="да" style="text;html=1;align=center;verticalAlign=middle;resizable=0;points=[];autosize=1;strokeColor=none;fillColor=none;" vertex="1" parent="1">
          <mxGeometry x="710" y="250" width="40" height="30" as="geometry" />
        </mxCell>
        <mxCell id="rjtTlHAXtcPvgYjNYt7F-9" value="вывод str[i]" style="shape=parallelogram;perimeter=parallelogramPerimeter;whiteSpace=wrap;html=1;fixedSize=1;" vertex="1" parent="1">
          <mxGeometry x="740" y="300" width="120" height="40" as="geometry" />
        </mxCell>
        <mxCell id="rjtTlHAXtcPvgYjNYt7F-10" value="" style="endArrow=none;html=1;rounded=0;entryX=0.5;entryY=1;entryDx=0;entryDy=0;" edge="1" parent="1" target="rjtTlHAXtcPvgYjNYt7F-9">
          <mxGeometry width="50" height="50" relative="1" as="geometry">
            <mxPoint x="800" y="380" as="sourcePoint" />
            <mxPoint x="890" y="360" as="targetPoint" />
          </mxGeometry>
        </mxCell>
        <mxCell id="rjtTlHAXtcPvgYjNYt7F-11" value="i++" style="rounded=0;whiteSpace=wrap;html=1;" vertex="1" parent="1">
          <mxGeometry x="740" y="370" width="120" height="40" as="geometry" />
        </mxCell>
        <mxCell id="rjtTlHAXtcPvgYjNYt7F-12" value="" style="endArrow=classic;html=1;rounded=0;exitX=0.5;exitY=1;exitDx=0;exitDy=0;" edge="1" parent="1" source="rjtTlHAXtcPvgYjNYt7F-11">
          <mxGeometry width="50" height="50" relative="1" as="geometry">
            <mxPoint x="810" y="410" as="sourcePoint" />
            <mxPoint x="650" y="220" as="targetPoint" />
            <Array as="points">
              <mxPoint x="800" y="430" />
              <mxPoint x="880" y="430" />
              <mxPoint x="880" y="220" />
            </Array>
          </mxGeometry>
        </mxCell>
        <mxCell id="rjtTlHAXtcPvgYjNYt7F-13" value="вывод word_numb" style="shape=parallelogram;perimeter=parallelogramPerimeter;whiteSpace=wrap;html=1;fixedSize=1;" vertex="1" parent="1">
          <mxGeometry x="580" y="350" width="140" height="50" as="geometry" />
        </mxCell>
        <mxCell id="rjtTlHAXtcPvgYjNYt7F-14" value="" style="endArrow=none;html=1;rounded=0;entryX=0.5;entryY=1;entryDx=0;entryDy=0;exitX=0.5;exitY=0;exitDx=0;exitDy=0;" edge="1" parent="1" source="rjtTlHAXtcPvgYjNYt7F-15" target="rjtTlHAXtcPvgYjNYt7F-13">
          <mxGeometry width="50" height="50" relative="1" as="geometry">
            <mxPoint x="650" y="450" as="sourcePoint" />
            <mxPoint x="870" y="360" as="targetPoint" />
          </mxGeometry>
        </mxCell>
        <mxCell id="rjtTlHAXtcPvgYjNYt7F-15" value="output&lt;br&gt;конец" style="rounded=1;whiteSpace=wrap;html=1;" vertex="1" parent="1">
          <mxGeometry x="590" y="440" width="120" height="40" as="geometry" />
        </mxCell>
        <mxCell id="rjtTlHAXtcPvgYjNYt7F-16" value="" style="endArrow=none;dashed=1;html=1;rounded=0;exitX=1;exitY=0.5;exitDx=0;exitDy=0;" edge="1" parent="1" source="rjtTlHAXtcPvgYjNYt7F-1" target="rjtTlHAXtcPvgYjNYt7F-17">
          <mxGeometry width="50" height="50" relative="1" as="geometry">
            <mxPoint x="1340" y="530" as="sourcePoint" />
            <mxPoint x="760" y="115" as="targetPoint" />
          </mxGeometry>
        </mxCell>
        <mxCell id="rjtTlHAXtcPvgYjNYt7F-17" value="stw - индекс максимально длинного слова в строке&lt;br&gt;len - длинна максимально длинного слова в строке&lt;br&gt;str[] - строка&amp;nbsp;&lt;br&gt;word_numb - порядковый номер слова в строке" style="strokeWidth=2;html=1;shape=mxgraph.flowchart.annotation_2;align=left;labelPosition=right;pointerEvents=1;" vertex="1" parent="1">
          <mxGeometry x="760" y="83.75" width="50" height="52.5" as="geometry" />
        </mxCell>
        <mxCell id="rjtTlHAXtcPvgYjNYt7F-18" value="" style="endArrow=none;dashed=1;html=1;rounded=0;" edge="1" parent="1">
          <mxGeometry width="50" height="50" relative="1" as="geometry">
            <mxPoint x="540" y="480" as="sourcePoint" />
            <mxPoint x="540" y="80" as="targetPoint" />
          </mxGeometry>
        </mxCell>
        <mxCell id="IWdv65Ib0nl5r1h4wzT6-1" value="да" style="text;html=1;align=center;verticalAlign=middle;resizable=0;points=[];autosize=1;strokeColor=none;fillColor=none;" vertex="1" parent="1">
          <mxGeometry x="185" y="280" width="40" height="30" as="geometry" />
        </mxCell>
        <mxCell id="Fnrqn888Zv0Hl6WRLy2H-2" value="" style="endArrow=none;html=1;rounded=0;exitX=0.5;exitY=1;exitDx=0;exitDy=0;" edge="1" parent="1" source="oxHT-I_WKf6XJEW5K6bw-1" target="Fnrqn888Zv0Hl6WRLy2H-1">
          <mxGeometry width="50" height="50" relative="1" as="geometry">
            <mxPoint x="140" y="140" as="sourcePoint" />
            <mxPoint x="140" y="210" as="targetPoint" />
          </mxGeometry>
        </mxCell>
        <mxCell id="Fnrqn888Zv0Hl6WRLy2H-1" value="flag = 1" style="rounded=0;whiteSpace=wrap;html=1;" vertex="1" parent="1">
          <mxGeometry x="80" y="160" width="120" height="40" as="geometry" />
        </mxCell>
      </root>
    </mxGraphModel>
  </diagram>
  <diagram id="_O2Zw_kdUjOW4JoMzJUj" name="output">
    <mxGraphModel dx="1853" dy="670" grid="1" gridSize="10" guides="1" tooltips="1" connect="1" arrows="1" fold="1" page="1" pageScale="1" pageWidth="827" pageHeight="1169" math="0" shadow="0">
      <root>
        <mxCell id="0" />
        <mxCell id="1" parent="0" />
        <mxCell id="XeA5zVaKT65Fnvdq-i_U-1" value="output(stw, len, str[], word_numb)&lt;br&gt;начало" style="rounded=1;whiteSpace=wrap;html=1;" parent="1" vertex="1">
          <mxGeometry x="470" y="140" width="160" height="60" as="geometry" />
        </mxCell>
        <mxCell id="XeA5zVaKT65Fnvdq-i_U-2" value="" style="endArrow=none;html=1;rounded=0;entryX=0.5;entryY=1;entryDx=0;entryDy=0;exitX=0.5;exitY=0;exitDx=0;exitDy=0;" parent="1" source="XeA5zVaKT65Fnvdq-i_U-3" target="XeA5zVaKT65Fnvdq-i_U-1" edge="1">
          <mxGeometry width="50" height="50" relative="1" as="geometry">
            <mxPoint x="550" y="250" as="sourcePoint" />
            <mxPoint x="770" y="650" as="targetPoint" />
          </mxGeometry>
        </mxCell>
        <mxCell id="XeA5zVaKT65Fnvdq-i_U-3" value="i = stw" style="rounded=0;whiteSpace=wrap;html=1;" parent="1" vertex="1">
          <mxGeometry x="505" y="220" width="90" height="40" as="geometry" />
        </mxCell>
        <mxCell id="XeA5zVaKT65Fnvdq-i_U-4" value="" style="endArrow=none;html=1;rounded=0;entryX=0.5;entryY=1;entryDx=0;entryDy=0;exitX=0.5;exitY=0;exitDx=0;exitDy=0;" parent="1" source="XeA5zVaKT65Fnvdq-i_U-5" target="XeA5zVaKT65Fnvdq-i_U-3" edge="1">
          <mxGeometry width="50" height="50" relative="1" as="geometry">
            <mxPoint x="550" y="330" as="sourcePoint" />
            <mxPoint x="770" y="650" as="targetPoint" />
          </mxGeometry>
        </mxCell>
        <mxCell id="XeA5zVaKT65Fnvdq-i_U-5" value="i &amp;lt; stw + len" style="rhombus;whiteSpace=wrap;html=1;" parent="1" vertex="1">
          <mxGeometry x="490" y="300" width="120" height="80" as="geometry" />
        </mxCell>
        <mxCell id="XeA5zVaKT65Fnvdq-i_U-6" value="" style="endArrow=none;html=1;rounded=0;entryX=0.5;entryY=1;entryDx=0;entryDy=0;exitX=0.5;exitY=0;exitDx=0;exitDy=0;" parent="1" source="8U0ageX77uejjE8O0XgT-4" target="XeA5zVaKT65Fnvdq-i_U-5" edge="1">
          <mxGeometry width="50" height="50" relative="1" as="geometry">
            <mxPoint x="570" y="400" as="sourcePoint" />
            <mxPoint x="770" y="650" as="targetPoint" />
          </mxGeometry>
        </mxCell>
        <mxCell id="XeA5zVaKT65Fnvdq-i_U-7" value="" style="endArrow=none;html=1;rounded=0;entryX=1;entryY=0.5;entryDx=0;entryDy=0;exitX=0.5;exitY=0;exitDx=0;exitDy=0;" parent="1" source="XeA5zVaKT65Fnvdq-i_U-9" target="XeA5zVaKT65Fnvdq-i_U-5" edge="1">
          <mxGeometry width="50" height="50" relative="1" as="geometry">
            <mxPoint x="700" y="380" as="sourcePoint" />
            <mxPoint x="630" y="340" as="targetPoint" />
            <Array as="points">
              <mxPoint x="700" y="340" />
            </Array>
          </mxGeometry>
        </mxCell>
        <mxCell id="XeA5zVaKT65Fnvdq-i_U-8" value="да" style="text;html=1;align=center;verticalAlign=middle;resizable=0;points=[];autosize=1;strokeColor=none;fillColor=none;" parent="1" vertex="1">
          <mxGeometry x="630" y="310" width="40" height="30" as="geometry" />
        </mxCell>
        <mxCell id="XeA5zVaKT65Fnvdq-i_U-9" value="вывод str[i]" style="shape=parallelogram;perimeter=parallelogramPerimeter;whiteSpace=wrap;html=1;fixedSize=1;" parent="1" vertex="1">
          <mxGeometry x="640" y="360" width="120" height="40" as="geometry" />
        </mxCell>
        <mxCell id="8U0ageX77uejjE8O0XgT-1" value="" style="endArrow=none;html=1;rounded=0;entryX=0.5;entryY=1;entryDx=0;entryDy=0;" parent="1" target="XeA5zVaKT65Fnvdq-i_U-9" edge="1">
          <mxGeometry width="50" height="50" relative="1" as="geometry">
            <mxPoint x="700" y="440" as="sourcePoint" />
            <mxPoint x="790" y="420" as="targetPoint" />
          </mxGeometry>
        </mxCell>
        <mxCell id="8U0ageX77uejjE8O0XgT-2" value="i++" style="rounded=0;whiteSpace=wrap;html=1;" parent="1" vertex="1">
          <mxGeometry x="640" y="430" width="120" height="40" as="geometry" />
        </mxCell>
        <mxCell id="8U0ageX77uejjE8O0XgT-3" value="" style="endArrow=classic;html=1;rounded=0;exitX=0.5;exitY=1;exitDx=0;exitDy=0;" parent="1" source="8U0ageX77uejjE8O0XgT-2" edge="1">
          <mxGeometry width="50" height="50" relative="1" as="geometry">
            <mxPoint x="710" y="470" as="sourcePoint" />
            <mxPoint x="550" y="280" as="targetPoint" />
            <Array as="points">
              <mxPoint x="700" y="490" />
              <mxPoint x="780" y="490" />
              <mxPoint x="780" y="280" />
            </Array>
          </mxGeometry>
        </mxCell>
        <mxCell id="8U0ageX77uejjE8O0XgT-4" value="вывод word_numb" style="shape=parallelogram;perimeter=parallelogramPerimeter;whiteSpace=wrap;html=1;fixedSize=1;" parent="1" vertex="1">
          <mxGeometry x="480" y="410" width="140" height="50" as="geometry" />
        </mxCell>
        <mxCell id="8U0ageX77uejjE8O0XgT-5" value="" style="endArrow=none;html=1;rounded=0;entryX=0.5;entryY=1;entryDx=0;entryDy=0;exitX=0.5;exitY=0;exitDx=0;exitDy=0;" parent="1" source="8U0ageX77uejjE8O0XgT-6" target="8U0ageX77uejjE8O0XgT-4" edge="1">
          <mxGeometry width="50" height="50" relative="1" as="geometry">
            <mxPoint x="550" y="510" as="sourcePoint" />
            <mxPoint x="770" y="420" as="targetPoint" />
          </mxGeometry>
        </mxCell>
        <mxCell id="8U0ageX77uejjE8O0XgT-6" value="output&lt;br&gt;конец" style="rounded=1;whiteSpace=wrap;html=1;" parent="1" vertex="1">
          <mxGeometry x="490" y="500" width="120" height="40" as="geometry" />
        </mxCell>
        <mxCell id="36Y7J019yQGNvQfhGmYS-1" value="" style="endArrow=none;dashed=1;html=1;rounded=0;exitX=1;exitY=0.5;exitDx=0;exitDy=0;" parent="1" source="XeA5zVaKT65Fnvdq-i_U-1" target="36Y7J019yQGNvQfhGmYS-2" edge="1">
          <mxGeometry width="50" height="50" relative="1" as="geometry">
            <mxPoint x="1240" y="590" as="sourcePoint" />
            <mxPoint x="660" y="175" as="targetPoint" />
          </mxGeometry>
        </mxCell>
        <mxCell id="36Y7J019yQGNvQfhGmYS-2" value="stw - индекс максимально длинного слова в строке&lt;br&gt;len - длинна максимально длинного слова в строке&lt;br&gt;str[] - строка&amp;nbsp;&lt;br&gt;word_numb - порядковый номер слова в строке" style="strokeWidth=2;html=1;shape=mxgraph.flowchart.annotation_2;align=left;labelPosition=right;pointerEvents=1;" parent="1" vertex="1">
          <mxGeometry x="660" y="143.75" width="50" height="52.5" as="geometry" />
        </mxCell>
        <mxCell id="LOqxK2VQhB-utANjWrfR-1" value="" style="endArrow=none;dashed=1;html=1;rounded=0;" edge="1" parent="1">
          <mxGeometry width="50" height="50" relative="1" as="geometry">
            <mxPoint x="430" y="540" as="sourcePoint" />
            <mxPoint x="430" y="140" as="targetPoint" />
          </mxGeometry>
        </mxCell>
        <mxCell id="Mclzz-QnRny8OBQ5IrMY-1" value="check_s(symb, n, divs[])" style="rounded=1;whiteSpace=wrap;html=1;" vertex="1" parent="1">
          <mxGeometry x="-40" y="140" width="120" height="60" as="geometry" />
        </mxCell>
        <mxCell id="Mclzz-QnRny8OBQ5IrMY-2" value="" style="endArrow=none;html=1;rounded=0;exitX=0.5;exitY=1;exitDx=0;exitDy=0;" edge="1" parent="1" source="Mclzz-QnRny8OBQ5IrMY-20" target="Mclzz-QnRny8OBQ5IrMY-4">
          <mxGeometry width="50" height="50" relative="1" as="geometry">
            <mxPoint x="20" y="210" as="sourcePoint" />
            <mxPoint x="20" y="240" as="targetPoint" />
          </mxGeometry>
        </mxCell>
        <mxCell id="Mclzz-QnRny8OBQ5IrMY-3" value="j &amp;lt; n" style="rhombus;whiteSpace=wrap;html=1;" vertex="1" parent="1">
          <mxGeometry x="-30" y="340" width="100" height="50" as="geometry" />
        </mxCell>
        <mxCell id="Mclzz-QnRny8OBQ5IrMY-4" value="j = 0" style="rounded=0;whiteSpace=wrap;html=1;" vertex="1" parent="1">
          <mxGeometry x="-40" y="270" width="120" height="40" as="geometry" />
        </mxCell>
        <mxCell id="Mclzz-QnRny8OBQ5IrMY-5" value="" style="endArrow=none;html=1;rounded=0;exitX=0.5;exitY=1;exitDx=0;exitDy=0;entryX=0.5;entryY=0;entryDx=0;entryDy=0;" edge="1" parent="1" source="Mclzz-QnRny8OBQ5IrMY-4" target="Mclzz-QnRny8OBQ5IrMY-3">
          <mxGeometry width="50" height="50" relative="1" as="geometry">
            <mxPoint x="160" y="250" as="sourcePoint" />
            <mxPoint x="210" y="200" as="targetPoint" />
          </mxGeometry>
        </mxCell>
        <mxCell id="Mclzz-QnRny8OBQ5IrMY-6" value="" style="endArrow=none;html=1;rounded=0;exitX=1;exitY=0.5;exitDx=0;exitDy=0;" edge="1" parent="1" source="Mclzz-QnRny8OBQ5IrMY-3" target="Mclzz-QnRny8OBQ5IrMY-8">
          <mxGeometry width="50" height="50" relative="1" as="geometry">
            <mxPoint x="100" y="365" as="sourcePoint" />
            <mxPoint x="150" y="450" as="targetPoint" />
            <Array as="points">
              <mxPoint x="150" y="365" />
            </Array>
          </mxGeometry>
        </mxCell>
        <mxCell id="Mclzz-QnRny8OBQ5IrMY-7" value="" style="endArrow=none;html=1;rounded=0;exitX=0.5;exitY=1;exitDx=0;exitDy=0;entryX=0.5;entryY=0;entryDx=0;entryDy=0;" edge="1" parent="1" source="Mclzz-QnRny8OBQ5IrMY-3" target="Mclzz-QnRny8OBQ5IrMY-12">
          <mxGeometry width="50" height="50" relative="1" as="geometry">
            <mxPoint x="160" y="250" as="sourcePoint" />
            <mxPoint x="20" y="510" as="targetPoint" />
          </mxGeometry>
        </mxCell>
        <mxCell id="Mclzz-QnRny8OBQ5IrMY-8" value="symb == divs[j]" style="rhombus;whiteSpace=wrap;html=1;" vertex="1" parent="1">
          <mxGeometry x="90" y="380" width="120" height="70" as="geometry" />
        </mxCell>
        <mxCell id="Mclzz-QnRny8OBQ5IrMY-9" value="" style="endArrow=none;html=1;rounded=0;exitX=0.5;exitY=1;exitDx=0;exitDy=0;entryX=0.5;entryY=0;entryDx=0;entryDy=0;" edge="1" parent="1" source="Mclzz-QnRny8OBQ5IrMY-8" target="Mclzz-QnRny8OBQ5IrMY-23">
          <mxGeometry width="50" height="50" relative="1" as="geometry">
            <mxPoint x="200" y="410" as="sourcePoint" />
            <mxPoint x="150" y="480" as="targetPoint" />
          </mxGeometry>
        </mxCell>
        <mxCell id="Mclzz-QnRny8OBQ5IrMY-10" value="" style="endArrow=none;html=1;rounded=0;exitX=1;exitY=0.5;exitDx=0;exitDy=0;entryX=0.5;entryY=0;entryDx=0;entryDy=0;" edge="1" parent="1" source="Mclzz-QnRny8OBQ5IrMY-8" target="Mclzz-QnRny8OBQ5IrMY-22">
          <mxGeometry width="50" height="50" relative="1" as="geometry">
            <mxPoint x="200" y="430" as="sourcePoint" />
            <mxPoint x="245" y="440" as="targetPoint" />
            <Array as="points">
              <mxPoint x="245" y="415" />
            </Array>
          </mxGeometry>
        </mxCell>
        <mxCell id="Mclzz-QnRny8OBQ5IrMY-11" value="" style="endArrow=classic;html=1;rounded=0;exitX=0.5;exitY=1;exitDx=0;exitDy=0;" edge="1" parent="1" source="Mclzz-QnRny8OBQ5IrMY-22">
          <mxGeometry width="50" height="50" relative="1" as="geometry">
            <mxPoint x="150" y="510" as="sourcePoint" />
            <mxPoint x="20" y="330" as="targetPoint" />
            <Array as="points">
              <mxPoint x="245" y="500" />
              <mxPoint x="320" y="500" />
              <mxPoint x="320" y="330" />
            </Array>
          </mxGeometry>
        </mxCell>
        <mxCell id="Mclzz-QnRny8OBQ5IrMY-12" value="return 1" style="rounded=0;whiteSpace=wrap;html=1;" vertex="1" parent="1">
          <mxGeometry x="-17.5" y="460" width="75" height="30" as="geometry" />
        </mxCell>
        <mxCell id="Mclzz-QnRny8OBQ5IrMY-13" value="check_s&lt;br&gt;конец" style="rounded=1;whiteSpace=wrap;html=1;" vertex="1" parent="1">
          <mxGeometry x="-25" y="540" width="90" height="40" as="geometry" />
        </mxCell>
        <mxCell id="Mclzz-QnRny8OBQ5IrMY-14" value="" style="endArrow=none;html=1;rounded=0;exitX=0.5;exitY=1;exitDx=0;exitDy=0;entryX=0.5;entryY=0;entryDx=0;entryDy=0;" edge="1" parent="1" source="Mclzz-QnRny8OBQ5IrMY-12" target="Mclzz-QnRny8OBQ5IrMY-13">
          <mxGeometry width="50" height="50" relative="1" as="geometry">
            <mxPoint x="80" y="500" as="sourcePoint" />
            <mxPoint x="130" y="450" as="targetPoint" />
          </mxGeometry>
        </mxCell>
        <mxCell id="Mclzz-QnRny8OBQ5IrMY-15" value="нет" style="text;html=1;align=center;verticalAlign=middle;resizable=0;points=[];autosize=1;strokeColor=none;fillColor=none;" vertex="1" parent="1">
          <mxGeometry x="200" y="385" width="40" height="30" as="geometry" />
        </mxCell>
        <mxCell id="Mclzz-QnRny8OBQ5IrMY-16" value="symb - символ который нужно проверить&lt;br&gt;n - кол-во символов разделителей&amp;nbsp;&lt;br&gt;divs[] - массив символов разделителей" style="strokeWidth=2;html=1;shape=mxgraph.flowchart.annotation_2;align=left;labelPosition=right;pointerEvents=1;" vertex="1" parent="1">
          <mxGeometry x="120" y="140" width="50" height="60" as="geometry" />
        </mxCell>
        <mxCell id="Mclzz-QnRny8OBQ5IrMY-17" value="" style="endArrow=none;dashed=1;html=1;rounded=0;exitX=1;exitY=0.5;exitDx=0;exitDy=0;entryX=0;entryY=0.5;entryDx=0;entryDy=0;entryPerimeter=0;" edge="1" parent="1" source="Mclzz-QnRny8OBQ5IrMY-1" target="Mclzz-QnRny8OBQ5IrMY-16">
          <mxGeometry width="50" height="50" relative="1" as="geometry">
            <mxPoint x="650" y="400" as="sourcePoint" />
            <mxPoint x="700" y="350" as="targetPoint" />
          </mxGeometry>
        </mxCell>
        <mxCell id="Mclzz-QnRny8OBQ5IrMY-18" value="да" style="text;html=1;align=center;verticalAlign=middle;resizable=0;points=[];autosize=1;strokeColor=none;fillColor=none;" vertex="1" parent="1">
          <mxGeometry x="95" y="340" width="40" height="30" as="geometry" />
        </mxCell>
        <mxCell id="Mclzz-QnRny8OBQ5IrMY-19" value="" style="endArrow=none;html=1;rounded=0;exitX=0.5;exitY=1;exitDx=0;exitDy=0;" edge="1" parent="1" source="Mclzz-QnRny8OBQ5IrMY-1" target="Mclzz-QnRny8OBQ5IrMY-20">
          <mxGeometry width="50" height="50" relative="1" as="geometry">
            <mxPoint x="20" y="200" as="sourcePoint" />
            <mxPoint x="20" y="270" as="targetPoint" />
          </mxGeometry>
        </mxCell>
        <mxCell id="Mclzz-QnRny8OBQ5IrMY-20" value="flag = 1" style="rounded=0;whiteSpace=wrap;html=1;" vertex="1" parent="1">
          <mxGeometry x="-40" y="220" width="120" height="40" as="geometry" />
        </mxCell>
        <mxCell id="Mclzz-QnRny8OBQ5IrMY-21" value="" style="endArrow=none;html=1;rounded=0;exitX=0.5;exitY=1;exitDx=0;exitDy=0;" edge="1" parent="1" source="Mclzz-QnRny8OBQ5IrMY-23">
          <mxGeometry width="50" height="50" relative="1" as="geometry">
            <mxPoint x="245" y="470" as="sourcePoint" />
            <mxPoint x="20" y="520" as="targetPoint" />
            <Array as="points">
              <mxPoint x="150" y="520" />
            </Array>
          </mxGeometry>
        </mxCell>
        <mxCell id="Mclzz-QnRny8OBQ5IrMY-22" value="j++" style="rounded=0;whiteSpace=wrap;html=1;" vertex="1" parent="1">
          <mxGeometry x="200" y="440" width="90" height="30" as="geometry" />
        </mxCell>
        <mxCell id="Mclzz-QnRny8OBQ5IrMY-23" value="return 0" style="rounded=0;whiteSpace=wrap;html=1;" vertex="1" parent="1">
          <mxGeometry x="115" y="470" width="70" height="30" as="geometry" />
        </mxCell>
      </root>
    </mxGraphModel>
  </diagram>
  <diagram id="Tfi0NQXfiSe6atn1tioW" name="Страница — 6">
    <mxGraphModel dx="1026" dy="670" grid="1" gridSize="10" guides="1" tooltips="1" connect="1" arrows="1" fold="1" page="1" pageScale="1" pageWidth="827" pageHeight="1169" math="0" shadow="0">
      <root>
        <mxCell id="0" />
        <mxCell id="1" parent="0" />
        <mxCell id="_ByUgEf0XPrXwul67IWI-1" value="check_s(symb, n, divs[])" style="rounded=1;whiteSpace=wrap;html=1;" vertex="1" parent="1">
          <mxGeometry x="80" y="80" width="120" height="60" as="geometry" />
        </mxCell>
        <mxCell id="_ByUgEf0XPrXwul67IWI-2" value="" style="endArrow=none;html=1;rounded=0;exitX=0.5;exitY=1;exitDx=0;exitDy=0;" edge="1" parent="1" source="_ByUgEf0XPrXwul67IWI-23" target="_ByUgEf0XPrXwul67IWI-4">
          <mxGeometry width="50" height="50" relative="1" as="geometry">
            <mxPoint x="140" y="150" as="sourcePoint" />
            <mxPoint x="140" y="180" as="targetPoint" />
          </mxGeometry>
        </mxCell>
        <mxCell id="_ByUgEf0XPrXwul67IWI-3" value="j &amp;lt; n" style="rhombus;whiteSpace=wrap;html=1;" vertex="1" parent="1">
          <mxGeometry x="90" y="280" width="100" height="50" as="geometry" />
        </mxCell>
        <mxCell id="_ByUgEf0XPrXwul67IWI-4" value="j = 0" style="rounded=0;whiteSpace=wrap;html=1;" vertex="1" parent="1">
          <mxGeometry x="80" y="210" width="120" height="40" as="geometry" />
        </mxCell>
        <mxCell id="_ByUgEf0XPrXwul67IWI-5" value="" style="endArrow=none;html=1;rounded=0;exitX=0.5;exitY=1;exitDx=0;exitDy=0;entryX=0.5;entryY=0;entryDx=0;entryDy=0;" edge="1" parent="1" source="_ByUgEf0XPrXwul67IWI-4" target="_ByUgEf0XPrXwul67IWI-3">
          <mxGeometry width="50" height="50" relative="1" as="geometry">
            <mxPoint x="280" y="190" as="sourcePoint" />
            <mxPoint x="330" y="140" as="targetPoint" />
          </mxGeometry>
        </mxCell>
        <mxCell id="_ByUgEf0XPrXwul67IWI-6" value="" style="endArrow=none;html=1;rounded=0;exitX=1;exitY=0.5;exitDx=0;exitDy=0;" edge="1" parent="1" source="_ByUgEf0XPrXwul67IWI-3" target="_ByUgEf0XPrXwul67IWI-8">
          <mxGeometry width="50" height="50" relative="1" as="geometry">
            <mxPoint x="220" y="305" as="sourcePoint" />
            <mxPoint x="270" y="390" as="targetPoint" />
            <Array as="points">
              <mxPoint x="270" y="305" />
            </Array>
          </mxGeometry>
        </mxCell>
        <mxCell id="_ByUgEf0XPrXwul67IWI-7" value="" style="endArrow=none;html=1;rounded=0;exitX=0.5;exitY=1;exitDx=0;exitDy=0;entryX=0.5;entryY=0;entryDx=0;entryDy=0;" edge="1" parent="1" source="_ByUgEf0XPrXwul67IWI-3" target="_ByUgEf0XPrXwul67IWI-15">
          <mxGeometry width="50" height="50" relative="1" as="geometry">
            <mxPoint x="280" y="190" as="sourcePoint" />
            <mxPoint x="140" y="450" as="targetPoint" />
          </mxGeometry>
        </mxCell>
        <mxCell id="_ByUgEf0XPrXwul67IWI-8" value="symb == divs[j]" style="rhombus;whiteSpace=wrap;html=1;" vertex="1" parent="1">
          <mxGeometry x="210" y="320" width="120" height="70" as="geometry" />
        </mxCell>
        <mxCell id="_ByUgEf0XPrXwul67IWI-9" value="" style="endArrow=none;html=1;rounded=0;exitX=0.5;exitY=1;exitDx=0;exitDy=0;entryX=0.5;entryY=0;entryDx=0;entryDy=0;" edge="1" parent="1" source="_ByUgEf0XPrXwul67IWI-8" target="_ByUgEf0XPrXwul67IWI-26">
          <mxGeometry width="50" height="50" relative="1" as="geometry">
            <mxPoint x="320" y="350" as="sourcePoint" />
            <mxPoint x="270" y="420" as="targetPoint" />
          </mxGeometry>
        </mxCell>
        <mxCell id="_ByUgEf0XPrXwul67IWI-10" value="" style="endArrow=none;html=1;rounded=0;exitX=1;exitY=0.5;exitDx=0;exitDy=0;entryX=0.5;entryY=0;entryDx=0;entryDy=0;" edge="1" parent="1" source="_ByUgEf0XPrXwul67IWI-8" target="_ByUgEf0XPrXwul67IWI-24">
          <mxGeometry width="50" height="50" relative="1" as="geometry">
            <mxPoint x="320" y="370" as="sourcePoint" />
            <mxPoint x="365" y="380" as="targetPoint" />
            <Array as="points">
              <mxPoint x="365" y="355" />
            </Array>
          </mxGeometry>
        </mxCell>
        <mxCell id="_ByUgEf0XPrXwul67IWI-14" value="" style="endArrow=classic;html=1;rounded=0;exitX=0.5;exitY=1;exitDx=0;exitDy=0;" edge="1" parent="1" source="_ByUgEf0XPrXwul67IWI-24">
          <mxGeometry width="50" height="50" relative="1" as="geometry">
            <mxPoint x="270" y="450" as="sourcePoint" />
            <mxPoint x="140" y="270" as="targetPoint" />
            <Array as="points">
              <mxPoint x="365" y="440" />
              <mxPoint x="440" y="440" />
              <mxPoint x="440" y="270" />
            </Array>
          </mxGeometry>
        </mxCell>
        <mxCell id="_ByUgEf0XPrXwul67IWI-15" value="return 1" style="rounded=0;whiteSpace=wrap;html=1;" vertex="1" parent="1">
          <mxGeometry x="95" y="400" width="90" height="30" as="geometry" />
        </mxCell>
        <mxCell id="_ByUgEf0XPrXwul67IWI-16" value="check_s&lt;br&gt;конец" style="rounded=1;whiteSpace=wrap;html=1;" vertex="1" parent="1">
          <mxGeometry x="95" y="480" width="90" height="40" as="geometry" />
        </mxCell>
        <mxCell id="_ByUgEf0XPrXwul67IWI-17" value="" style="endArrow=none;html=1;rounded=0;exitX=0.5;exitY=1;exitDx=0;exitDy=0;entryX=0.5;entryY=0;entryDx=0;entryDy=0;" edge="1" parent="1" source="_ByUgEf0XPrXwul67IWI-15" target="_ByUgEf0XPrXwul67IWI-16">
          <mxGeometry width="50" height="50" relative="1" as="geometry">
            <mxPoint x="200" y="440" as="sourcePoint" />
            <mxPoint x="250" y="390" as="targetPoint" />
          </mxGeometry>
        </mxCell>
        <mxCell id="_ByUgEf0XPrXwul67IWI-18" value="нет" style="text;html=1;align=center;verticalAlign=middle;resizable=0;points=[];autosize=1;strokeColor=none;fillColor=none;" vertex="1" parent="1">
          <mxGeometry x="320" y="325" width="40" height="30" as="geometry" />
        </mxCell>
        <mxCell id="_ByUgEf0XPrXwul67IWI-19" value="symb - символ который нужно проверить&lt;br&gt;n - кол-во символов разделителей&amp;nbsp;&lt;br&gt;divs[] - массив символов разделителей" style="strokeWidth=2;html=1;shape=mxgraph.flowchart.annotation_2;align=left;labelPosition=right;pointerEvents=1;" vertex="1" parent="1">
          <mxGeometry x="240" y="80" width="50" height="60" as="geometry" />
        </mxCell>
        <mxCell id="_ByUgEf0XPrXwul67IWI-20" value="" style="endArrow=none;dashed=1;html=1;rounded=0;exitX=1;exitY=0.5;exitDx=0;exitDy=0;entryX=0;entryY=0.5;entryDx=0;entryDy=0;entryPerimeter=0;" edge="1" parent="1" source="_ByUgEf0XPrXwul67IWI-1" target="_ByUgEf0XPrXwul67IWI-19">
          <mxGeometry width="50" height="50" relative="1" as="geometry">
            <mxPoint x="770" y="340" as="sourcePoint" />
            <mxPoint x="820" y="290" as="targetPoint" />
          </mxGeometry>
        </mxCell>
        <mxCell id="_ByUgEf0XPrXwul67IWI-21" value="да" style="text;html=1;align=center;verticalAlign=middle;resizable=0;points=[];autosize=1;strokeColor=none;fillColor=none;" vertex="1" parent="1">
          <mxGeometry x="215" y="280" width="40" height="30" as="geometry" />
        </mxCell>
        <mxCell id="_ByUgEf0XPrXwul67IWI-22" value="" style="endArrow=none;html=1;rounded=0;exitX=0.5;exitY=1;exitDx=0;exitDy=0;" edge="1" parent="1" source="_ByUgEf0XPrXwul67IWI-1" target="_ByUgEf0XPrXwul67IWI-23">
          <mxGeometry width="50" height="50" relative="1" as="geometry">
            <mxPoint x="140" y="140" as="sourcePoint" />
            <mxPoint x="140" y="210" as="targetPoint" />
          </mxGeometry>
        </mxCell>
        <mxCell id="_ByUgEf0XPrXwul67IWI-23" value="flag = 1" style="rounded=0;whiteSpace=wrap;html=1;" vertex="1" parent="1">
          <mxGeometry x="80" y="160" width="120" height="40" as="geometry" />
        </mxCell>
        <mxCell id="_ByUgEf0XPrXwul67IWI-25" value="" style="endArrow=none;html=1;rounded=0;exitX=0.5;exitY=1;exitDx=0;exitDy=0;" edge="1" parent="1" source="_ByUgEf0XPrXwul67IWI-26">
          <mxGeometry width="50" height="50" relative="1" as="geometry">
            <mxPoint x="365" y="410" as="sourcePoint" />
            <mxPoint x="140" y="460" as="targetPoint" />
            <Array as="points">
              <mxPoint x="270" y="460" />
            </Array>
          </mxGeometry>
        </mxCell>
        <mxCell id="_ByUgEf0XPrXwul67IWI-24" value="j++" style="rounded=0;whiteSpace=wrap;html=1;" vertex="1" parent="1">
          <mxGeometry x="320" y="380" width="90" height="30" as="geometry" />
        </mxCell>
        <mxCell id="_ByUgEf0XPrXwul67IWI-26" value="return 0" style="rounded=0;whiteSpace=wrap;html=1;" vertex="1" parent="1">
          <mxGeometry x="235" y="410" width="70" height="30" as="geometry" />
        </mxCell>
      </root>
    </mxGraphModel>
  </diagram>
</mxfile>
